<mxfile host="app.diagrams.net" modified="2021-04-13T02:55:42.662Z" agent="5.0 (Macintosh; Intel Mac OS X 10_15_6) AppleWebKit/605.1.15 (KHTML, like Gecko) Version/14.0.3 Safari/605.1.15" etag="H6B2jSAh4oJWe9NwKPaD" version="14.5.10" type="github">
  <diagram id="9O8iGurEwM00Xgr4C-jm" name="Page-1">
    <mxGraphModel dx="945" dy="1844" grid="1" gridSize="10" guides="1" tooltips="1" connect="1" arrows="1" fold="1" page="1" pageScale="1" pageWidth="827" pageHeight="1169" math="0" shadow="0">
      <root>
        <mxCell id="0" />
        <mxCell id="1" parent="0" />
        <mxCell id="bdORp0koGo3pnS6SEYci-6" value="" style="rounded=0;whiteSpace=wrap;html=1;dashed=1;" vertex="1" parent="1">
          <mxGeometry x="425" y="-593" width="335" height="260" as="geometry" />
        </mxCell>
        <mxCell id="yc47rKHp-3bzyUVVMqOh-37" value="" style="rounded=0;whiteSpace=wrap;html=1;dashed=1;" parent="1" vertex="1">
          <mxGeometry x="730" y="200" width="190" height="110" as="geometry" />
        </mxCell>
        <mxCell id="yc47rKHp-3bzyUVVMqOh-47" style="edgeStyle=orthogonalEdgeStyle;rounded=0;jumpStyle=none;orthogonalLoop=1;jettySize=auto;html=1;entryX=0.5;entryY=0;entryDx=0;entryDy=0;dashed=1;" parent="1" source="sZk2TDIeKRRrlAcCxrl2-5" target="sZk2TDIeKRRrlAcCxrl2-7" edge="1">
          <mxGeometry relative="1" as="geometry" />
        </mxCell>
        <mxCell id="yc47rKHp-3bzyUVVMqOh-48" style="edgeStyle=orthogonalEdgeStyle;rounded=0;jumpStyle=none;orthogonalLoop=1;jettySize=auto;html=1;entryX=1;entryY=0.5;entryDx=0;entryDy=0;dashed=1;exitX=0;exitY=0.5;exitDx=0;exitDy=0;" parent="1" source="sZk2TDIeKRRrlAcCxrl2-3" edge="1">
          <mxGeometry relative="1" as="geometry">
            <mxPoint x="275" y="180" as="targetPoint" />
          </mxGeometry>
        </mxCell>
        <mxCell id="sZk2TDIeKRRrlAcCxrl2-5" value="" style="rounded=0;whiteSpace=wrap;html=1;dashed=1;" parent="1" vertex="1">
          <mxGeometry x="140" y="-40" width="805" height="370" as="geometry" />
        </mxCell>
        <mxCell id="sZk2TDIeKRRrlAcCxrl2-9" value="" style="rounded=0;whiteSpace=wrap;html=1;dashed=1;" parent="1" vertex="1">
          <mxGeometry x="730" y="200" width="200" height="110" as="geometry" />
        </mxCell>
        <mxCell id="sZk2TDIeKRRrlAcCxrl2-7" value="" style="rounded=0;whiteSpace=wrap;html=1;dashed=1;" parent="1" vertex="1">
          <mxGeometry x="140" y="350" width="805" height="140" as="geometry" />
        </mxCell>
        <mxCell id="yc47rKHp-3bzyUVVMqOh-39" style="edgeStyle=orthogonalEdgeStyle;rounded=0;jumpStyle=none;orthogonalLoop=1;jettySize=auto;html=1;exitX=1;exitY=0.75;exitDx=0;exitDy=0;entryX=0;entryY=0.5;entryDx=0;entryDy=0;dashed=1;" parent="1" source="sZk2TDIeKRRrlAcCxrl2-3" target="sZk2TDIeKRRrlAcCxrl2-9" edge="1">
          <mxGeometry relative="1" as="geometry" />
        </mxCell>
        <mxCell id="sZk2TDIeKRRrlAcCxrl2-3" value="" style="rounded=0;whiteSpace=wrap;html=1;dashed=1;" parent="1" vertex="1">
          <mxGeometry x="230" y="-10" width="450" height="160" as="geometry" />
        </mxCell>
        <mxCell id="sZk2TDIeKRRrlAcCxrl2-4" value="&lt;span style=&quot;font-size: 12px&quot;&gt;数据库、中间件、缓存服务&lt;/span&gt;" style="text;strokeColor=none;fillColor=none;html=1;fontSize=24;fontStyle=1;verticalAlign=middle;align=center;dashed=1;" parent="1" vertex="1">
          <mxGeometry x="310" y="360" width="160" height="40" as="geometry" />
        </mxCell>
        <mxCell id="sZk2TDIeKRRrlAcCxrl2-8" value="&lt;span style=&quot;font-size: 12px&quot;&gt;业务系统&lt;/span&gt;" style="text;strokeColor=none;fillColor=none;html=1;fontSize=24;fontStyle=1;verticalAlign=middle;align=center;dashed=1;" parent="1" vertex="1">
          <mxGeometry x="490" y="115" width="160" height="40" as="geometry" />
        </mxCell>
        <mxCell id="yc47rKHp-3bzyUVVMqOh-3" value="mysql" style="aspect=fixed;html=1;points=[];align=center;image;fontSize=12;image=img/lib/mscae/Azure_Database_for_MySQL_servers.svg;dashed=1;" parent="1" vertex="1">
          <mxGeometry x="272" y="410" width="38" height="50" as="geometry" />
        </mxCell>
        <mxCell id="yc47rKHp-3bzyUVVMqOh-5" value="Redis" style="aspect=fixed;html=1;points=[];align=center;image;fontSize=12;image=img/lib/mscae/Azure_Cache_for_Redis.svg;dashed=1;" parent="1" vertex="1">
          <mxGeometry x="515" y="410" width="50" height="50" as="geometry" />
        </mxCell>
        <mxCell id="yc47rKHp-3bzyUVVMqOh-6" value="MQ" style="aspect=fixed;html=1;points=[];align=center;image;fontSize=12;image=img/lib/mscae/Managed_Databases.svg;dashed=1;" parent="1" vertex="1">
          <mxGeometry x="780" y="410" width="47" height="50" as="geometry" />
        </mxCell>
        <mxCell id="yc47rKHp-3bzyUVVMqOh-14" style="edgeStyle=orthogonalEdgeStyle;rounded=0;jumpStyle=none;orthogonalLoop=1;jettySize=auto;html=1;dashed=1;" parent="1" source="yc47rKHp-3bzyUVVMqOh-8" target="sZk2TDIeKRRrlAcCxrl2-3" edge="1">
          <mxGeometry relative="1" as="geometry">
            <mxPoint x="485" y="-30" as="targetPoint" />
          </mxGeometry>
        </mxCell>
        <mxCell id="yc47rKHp-3bzyUVVMqOh-8" value="Nginx反向代理" style="aspect=fixed;pointerEvents=1;shadow=0;dashed=0;html=1;strokeColor=none;labelPosition=center;verticalLabelPosition=bottom;verticalAlign=top;align=center;fillColor=#00188D;shape=mxgraph.mscae.enterprise.device" parent="1" vertex="1">
          <mxGeometry x="470" y="-110" width="50" height="26" as="geometry" />
        </mxCell>
        <mxCell id="yc47rKHp-3bzyUVVMqOh-20" value="&lt;font size=&quot;1&quot;&gt;客户自服务Web后台&lt;/font&gt;" style="aspect=fixed;pointerEvents=1;shadow=0;dashed=0;html=1;strokeColor=#9673a6;labelPosition=center;verticalLabelPosition=bottom;verticalAlign=top;align=center;fillColor=#e1d5e7;shape=mxgraph.mscae.enterprise.device" parent="1" vertex="1">
          <mxGeometry x="266" width="50" height="26" as="geometry" />
        </mxCell>
        <mxCell id="yc47rKHp-3bzyUVVMqOh-22" value="&lt;font size=&quot;1&quot;&gt;系统运营管理Web后台&lt;/font&gt;" style="aspect=fixed;pointerEvents=1;shadow=0;dashed=0;html=1;strokeColor=#9673a6;labelPosition=center;verticalLabelPosition=bottom;verticalAlign=top;align=center;fillColor=#e1d5e7;shape=mxgraph.mscae.enterprise.device" parent="1" vertex="1">
          <mxGeometry x="376" width="50" height="26" as="geometry" />
        </mxCell>
        <mxCell id="yc47rKHp-3bzyUVVMqOh-23" value="&lt;font size=&quot;1&quot;&gt;KMIP服务&lt;/font&gt;" style="aspect=fixed;pointerEvents=1;shadow=0;dashed=0;html=1;strokeColor=#9673a6;labelPosition=center;verticalLabelPosition=bottom;verticalAlign=top;align=center;fillColor=#e1d5e7;shape=mxgraph.mscae.enterprise.device" parent="1" vertex="1">
          <mxGeometry x="470" width="50" height="26" as="geometry" />
        </mxCell>
        <mxCell id="yc47rKHp-3bzyUVVMqOh-24" value="&lt;font size=&quot;1&quot;&gt;用户认证服务&lt;/font&gt;" style="aspect=fixed;pointerEvents=1;shadow=0;dashed=0;html=1;strokeColor=#9673a6;labelPosition=center;verticalLabelPosition=bottom;verticalAlign=top;align=center;fillColor=#e1d5e7;shape=mxgraph.mscae.enterprise.device" parent="1" vertex="1">
          <mxGeometry x="565" width="50" height="26" as="geometry" />
        </mxCell>
        <mxCell id="BrWj3g4MpUX0fR22nen--9" style="edgeStyle=orthogonalEdgeStyle;rounded=0;orthogonalLoop=1;jettySize=auto;html=1;entryX=1;entryY=0.5;entryDx=0;entryDy=0;" parent="1" source="yc47rKHp-3bzyUVVMqOh-25" target="BrWj3g4MpUX0fR22nen--2" edge="1">
          <mxGeometry relative="1" as="geometry" />
        </mxCell>
        <mxCell id="yc47rKHp-3bzyUVVMqOh-25" value="&lt;p class=&quot;MsoNormal&quot; align=&quot;center&quot; style=&quot;margin: 0pt 0pt 0.0001pt ; line-height: 21px ; text-indent: 0pt&quot;&gt;&lt;font size=&quot;1&quot;&gt;密码服务&lt;/font&gt;&lt;/p&gt;" style="aspect=fixed;pointerEvents=1;shadow=0;dashed=0;html=1;strokeColor=#9673a6;labelPosition=center;verticalLabelPosition=bottom;verticalAlign=top;align=center;fillColor=#e1d5e7;shape=mxgraph.mscae.enterprise.device" parent="1" vertex="1">
          <mxGeometry x="420" y="70" width="50" height="26" as="geometry" />
        </mxCell>
        <mxCell id="BrWj3g4MpUX0fR22nen--6" style="edgeStyle=orthogonalEdgeStyle;rounded=0;orthogonalLoop=1;jettySize=auto;html=1;entryX=0.5;entryY=0;entryDx=0;entryDy=0;" parent="1" source="yc47rKHp-3bzyUVVMqOh-26" target="BrWj3g4MpUX0fR22nen--2" edge="1">
          <mxGeometry relative="1" as="geometry" />
        </mxCell>
        <mxCell id="yc47rKHp-3bzyUVVMqOh-26" value="&lt;font size=&quot;1&quot;&gt;KLMS服务&lt;/font&gt;" style="aspect=fixed;pointerEvents=1;shadow=0;dashed=0;html=1;strokeColor=#9673a6;labelPosition=center;verticalLabelPosition=bottom;verticalAlign=top;align=center;fillColor=#e1d5e7;shape=mxgraph.mscae.enterprise.device" parent="1" vertex="1">
          <mxGeometry x="260" y="70" width="50" height="26" as="geometry" />
        </mxCell>
        <mxCell id="yc47rKHp-3bzyUVVMqOh-27" value="&lt;font size=&quot;1&quot;&gt;KDC服务&lt;/font&gt;" style="aspect=fixed;pointerEvents=1;shadow=0;dashed=0;html=1;strokeColor=#9673a6;labelPosition=center;verticalLabelPosition=bottom;verticalAlign=top;align=center;fillColor=#e1d5e7;shape=mxgraph.mscae.enterprise.device" parent="1" vertex="1">
          <mxGeometry x="340" y="70" width="50" height="26" as="geometry" />
        </mxCell>
        <mxCell id="yc47rKHp-3bzyUVVMqOh-28" value="&lt;p class=&quot;MsoNormal&quot; align=&quot;center&quot; style=&quot;margin: 0pt 0pt 0.0001pt ; line-height: 21px ; text-indent: 0pt&quot;&gt;&lt;font size=&quot;1&quot;&gt;证书管理服务&lt;/font&gt;&lt;/p&gt;" style="aspect=fixed;pointerEvents=1;shadow=0;dashed=0;html=1;strokeColor=#9673a6;labelPosition=center;verticalLabelPosition=bottom;verticalAlign=top;align=center;fillColor=#e1d5e7;shape=mxgraph.mscae.enterprise.device" parent="1" vertex="1">
          <mxGeometry x="515" y="70" width="50" height="26" as="geometry" />
        </mxCell>
        <mxCell id="yc47rKHp-3bzyUVVMqOh-31" value="&lt;span style=&quot;font-size: 12px&quot;&gt;HSM&lt;/span&gt;" style="text;strokeColor=none;fillColor=none;html=1;fontSize=24;fontStyle=1;verticalAlign=middle;align=center;dashed=1;" parent="1" vertex="1">
          <mxGeometry x="760" y="260" width="160" height="40" as="geometry" />
        </mxCell>
        <mxCell id="yc47rKHp-3bzyUVVMqOh-32" value="服务器密码机" style="aspect=fixed;pointerEvents=1;shadow=0;dashed=0;html=1;strokeColor=#b85450;labelPosition=center;verticalLabelPosition=bottom;verticalAlign=top;align=center;fillColor=#f8cecc;shape=mxgraph.mscae.enterprise.device" parent="1" vertex="1">
          <mxGeometry x="747" y="213" width="50" height="26" as="geometry" />
        </mxCell>
        <mxCell id="yc47rKHp-3bzyUVVMqOh-33" value="密码资源池" style="aspect=fixed;pointerEvents=1;shadow=0;dashed=0;html=1;strokeColor=#b85450;labelPosition=center;verticalLabelPosition=bottom;verticalAlign=top;align=center;fillColor=#f8cecc;shape=mxgraph.mscae.enterprise.device" parent="1" vertex="1">
          <mxGeometry x="840" y="213" width="50" height="26" as="geometry" />
        </mxCell>
        <mxCell id="yc47rKHp-3bzyUVVMqOh-46" style="edgeStyle=orthogonalEdgeStyle;rounded=0;jumpStyle=none;orthogonalLoop=1;jettySize=auto;html=1;entryX=0.5;entryY=0;entryDx=0;entryDy=0;entryPerimeter=0;dashed=1;" parent="1" source="yc47rKHp-3bzyUVVMqOh-40" target="yc47rKHp-3bzyUVVMqOh-8" edge="1">
          <mxGeometry relative="1" as="geometry" />
        </mxCell>
        <mxCell id="yc47rKHp-3bzyUVVMqOh-40" value="" style="rounded=0;whiteSpace=wrap;html=1;dashed=1;" parent="1" vertex="1">
          <mxGeometry x="140" y="-210" width="805" height="70" as="geometry" />
        </mxCell>
        <mxCell id="yc47rKHp-3bzyUVVMqOh-41" value="&lt;span style=&quot;font-size: 12px&quot;&gt;用户PC、Android&lt;/span&gt;" style="text;strokeColor=none;fillColor=none;html=1;fontSize=24;fontStyle=1;verticalAlign=middle;align=center;dashed=1;" parent="1" vertex="1">
          <mxGeometry x="254" y="-215" width="160" height="40" as="geometry" />
        </mxCell>
        <mxCell id="yc47rKHp-3bzyUVVMqOh-44" value="" style="pointerEvents=1;shadow=0;dashed=0;html=1;strokeColor=none;labelPosition=center;verticalLabelPosition=bottom;verticalAlign=top;align=center;fillColor=#505050;shape=mxgraph.mscae.intune.groups" parent="1" vertex="1">
          <mxGeometry x="520" y="-200" width="50" height="48" as="geometry" />
        </mxCell>
        <mxCell id="yc47rKHp-3bzyUVVMqOh-45" value="" style="pointerEvents=1;shadow=0;dashed=0;html=1;strokeColor=none;labelPosition=center;verticalLabelPosition=bottom;verticalAlign=top;align=center;fillColor=#505050;shape=mxgraph.mscae.intune.device_group" parent="1" vertex="1">
          <mxGeometry x="426" y="-202" width="50" height="50" as="geometry" />
        </mxCell>
        <mxCell id="BrWj3g4MpUX0fR22nen--2" value="" style="rounded=0;whiteSpace=wrap;html=1;dashed=1;" parent="1" vertex="1">
          <mxGeometry x="176" y="200" width="200" height="110" as="geometry" />
        </mxCell>
        <mxCell id="BrWj3g4MpUX0fR22nen--5" value="&lt;font size=&quot;1&quot;&gt;SM9 KGC&lt;/font&gt;" style="aspect=fixed;pointerEvents=1;shadow=0;dashed=0;html=1;strokeColor=#9673a6;labelPosition=center;verticalLabelPosition=bottom;verticalAlign=top;align=center;fillColor=#e1d5e7;shape=mxgraph.mscae.enterprise.device" parent="1" vertex="1">
          <mxGeometry x="254" y="230" width="50" height="26" as="geometry" />
        </mxCell>
        <mxCell id="BrWj3g4MpUX0fR22nen--7" value="&lt;font size=&quot;1&quot;&gt;应用管理服务&lt;/font&gt;" style="aspect=fixed;pointerEvents=1;shadow=0;dashed=0;html=1;strokeColor=#9673a6;labelPosition=center;verticalLabelPosition=bottom;verticalAlign=top;align=center;fillColor=#e1d5e7;shape=mxgraph.mscae.enterprise.device" parent="1" vertex="1">
          <mxGeometry x="610" y="70" width="50" height="26" as="geometry" />
        </mxCell>
        <mxCell id="bdORp0koGo3pnS6SEYci-3" style="edgeStyle=orthogonalEdgeStyle;rounded=0;orthogonalLoop=1;jettySize=auto;html=1;entryX=0.03;entryY=0.5;entryDx=0;entryDy=0;entryPerimeter=0;" edge="1" parent="1" source="bdORp0koGo3pnS6SEYci-1" target="bdORp0koGo3pnS6SEYci-2">
          <mxGeometry relative="1" as="geometry">
            <mxPoint x="410" y="-480" as="targetPoint" />
          </mxGeometry>
        </mxCell>
        <mxCell id="bdORp0koGo3pnS6SEYci-4" value="使用Web，登录、创建APP,得到APP ID和Secret" style="edgeLabel;html=1;align=center;verticalAlign=middle;resizable=0;points=[];" vertex="1" connectable="0" parent="bdORp0koGo3pnS6SEYci-3">
          <mxGeometry x="0.2407" y="1" relative="1" as="geometry">
            <mxPoint as="offset" />
          </mxGeometry>
        </mxCell>
        <mxCell id="bdORp0koGo3pnS6SEYci-1" value="组织管理员" style="shape=umlActor;verticalLabelPosition=bottom;verticalAlign=top;html=1;outlineConnect=0;" vertex="1" parent="1">
          <mxGeometry x="190" y="-530" width="30" height="60" as="geometry" />
        </mxCell>
        <mxCell id="bdORp0koGo3pnS6SEYci-2" value="&lt;font size=&quot;1&quot;&gt;用户自服务后台&lt;br&gt;&lt;/font&gt;" style="aspect=fixed;pointerEvents=1;shadow=0;dashed=0;html=1;strokeColor=#9673a6;labelPosition=center;verticalLabelPosition=bottom;verticalAlign=top;align=center;fillColor=#e1d5e7;shape=mxgraph.mscae.enterprise.device" vertex="1" parent="1">
          <mxGeometry x="530" y="-530" width="50" height="26" as="geometry" />
        </mxCell>
        <mxCell id="bdORp0koGo3pnS6SEYci-5" style="edgeStyle=orthogonalEdgeStyle;rounded=0;orthogonalLoop=1;jettySize=auto;html=1;exitX=0.5;exitY=1;exitDx=0;exitDy=0;exitPerimeter=0;" edge="1" parent="1" source="bdORp0koGo3pnS6SEYci-2" target="bdORp0koGo3pnS6SEYci-2">
          <mxGeometry relative="1" as="geometry" />
        </mxCell>
        <mxCell id="bdORp0koGo3pnS6SEYci-7" value="&lt;span style=&quot;font-size: 12px&quot;&gt;云密钥管理系统&lt;/span&gt;" style="text;strokeColor=none;fillColor=none;html=1;fontSize=24;fontStyle=1;verticalAlign=middle;align=center;dashed=1;" vertex="1" parent="1">
          <mxGeometry x="490" y="-584" width="160" height="40" as="geometry" />
        </mxCell>
        <mxCell id="bdORp0koGo3pnS6SEYci-8" value="&lt;font size=&quot;1&quot;&gt;KLMS服务&lt;br&gt;&lt;/font&gt;" style="aspect=fixed;pointerEvents=1;shadow=0;dashed=0;html=1;strokeColor=#9673a6;labelPosition=center;verticalLabelPosition=bottom;verticalAlign=top;align=center;fillColor=#e1d5e7;shape=mxgraph.mscae.enterprise.device" vertex="1" parent="1">
          <mxGeometry x="530" y="-450" width="50" height="26" as="geometry" />
        </mxCell>
        <mxCell id="bdORp0koGo3pnS6SEYci-11" style="edgeStyle=orthogonalEdgeStyle;rounded=0;orthogonalLoop=1;jettySize=auto;html=1;entryX=0.5;entryY=1;entryDx=0;entryDy=0;entryPerimeter=0;" edge="1" parent="1" source="bdORp0koGo3pnS6SEYci-9" target="bdORp0koGo3pnS6SEYci-8">
          <mxGeometry relative="1" as="geometry" />
        </mxCell>
        <mxCell id="bdORp0koGo3pnS6SEYci-12" value="通过SDK,创建/查询主密钥信息、创建数据密钥，&lt;br&gt;销毁主密钥等操作API" style="edgeLabel;html=1;align=center;verticalAlign=middle;resizable=0;points=[];" vertex="1" connectable="0" parent="bdORp0koGo3pnS6SEYci-11">
          <mxGeometry x="0.0345" y="4" relative="1" as="geometry">
            <mxPoint x="-27" y="28" as="offset" />
          </mxGeometry>
        </mxCell>
        <mxCell id="bdORp0koGo3pnS6SEYci-9" value="&lt;font size=&quot;1&quot;&gt;用户业务服务器&lt;br&gt;+&lt;br&gt;KMS SDK&lt;br&gt;&lt;/font&gt;" style="aspect=fixed;pointerEvents=1;shadow=0;dashed=0;html=1;strokeColor=#9673a6;labelPosition=center;verticalLabelPosition=bottom;verticalAlign=top;align=center;fillColor=#e1d5e7;shape=mxgraph.mscae.enterprise.device" vertex="1" parent="1">
          <mxGeometry x="180" y="-430" width="50" height="26" as="geometry" />
        </mxCell>
      </root>
    </mxGraphModel>
  </diagram>
</mxfile>
